<svg height="1240" viewBox="0 0 1240 1240" width="1240" xmlns="http://www.w3.org/2000/svg"><path d="m756 42.609375c-62.51326-.63125-105.399039 1.3151042-128.65734 5.8390625-27.941532-29.8265625-67.722698-48.4484375-111.608269-48.4484375-84.456045 0-152.81019 68.490625-152.81019 152.920312 0 11.99375 1.262894 23.671875 3.946544 34.876563-127.078722-6.3125-239.792023-67.228125-315.0920856-159.8640625-13.1025266 22.5671875-61.40822716 174.0671875-36.1503445 275.0671875 25.2578826 101 106.7145541 172.33125 173.6479431 173.59375-52.252245 41.03125-81.140948 62.49375-152.8101899 62.49375-12.3132178 0-24.4685738-.789062-36.4660681-2.209375 67.4069743 43.871875 147.758613 69.121875 233.951138 69.121875 281.46753 0 435.22489-233.089063 435.22489-435.246875 0-6.628125-.157861-13.25625-.473585-19.726562 19.890583-14.413542 48.989768-50.552605 87.297557-108.417188z" fill="none" stroke="#979797" stroke-linejoin="round" stroke-width="50" transform="translate(242 317)"/></svg>